<svg xmlns="http://www.w3.org/2000/svg" width="26" height="26" viewBox="0 0 26 26" fill="none"><g clip-path="url(#clip0_166_20)"><path d="M9.34296 9.1426C8.1657 10.3199 6.26204 10.3199 5.08477 9.1426L1.22735 5.28518C0.0500901 4.10792 0.0500901 2.20425 1.22735 1.02699C2.40462 -0.150273 4.30828 -0.150273 5.48554 1.02699L9.36801 4.90946C10.5202 6.06167 10.5202 7.96533 9.34296 9.1426Z" fill="#008AA5"></path><path d="M9.01735 16.9577C10.1946 18.1349 10.1946 20.0386 9.01735 21.2158L5.13488 25.0983C3.95762 26.2756 2.05396 26.2756 0.876692 25.0983C-0.300572 23.921 -0.300572 22.0174 0.876692 20.8401L4.75916 16.9577C5.96147 15.7804 7.86513 15.7804 9.01735 16.9577Z" fill="#007589"></path><path d="M25.0983 0.8766C26.2755 2.05386 26.2755 3.95753 25.0983 5.13479L21.2409 9.01726C20.0636 10.1945 18.1599 10.1945 16.9827 9.01726C15.8054 7.83999 15.8054 5.93633 16.9827 4.75907L20.8651 0.8766C22.0424 -0.300664 23.9461 -0.300664 25.0983 0.8766Z" fill="#44B7CE"></path></g><defs><clipPath id="clip0_166_20"><rect width="26" height="26" fill="white"></rect></clipPath></defs></svg>