<svg xmlns="http://www.w3.org/2000/svg" viewBox="0 0 300 300"><defs><style>.cls-1 { fill: none; } .cls-2 { fill: #008aae; }</style></defs><g><g id="Capa_1"><g><path class="cls-1" d="M268.28 88.9c-4.29.0-7.77 3.49-7.77 7.77v45.63c.02 4.01-1.51 7.8-4.36 10.74l-24.69 30.27c-1.12 1.24-3.24 1.47-4.63.45-.75-.55-1.24-1.36-1.38-2.28s.08-1.84.6-2.55l24.78-30.4.33-.37c1.56-1.57 2.42-3.66 2.41-5.88.0-2.23-.88-4.32-2.48-5.9-1.6-1.53-3.69-2.37-5.89-2.37s-4.28.84-5.96 2.45l-51.44 62.38c-.32.38-.5.87-.5 1.37v37.28c0 1.18.96 2.14 2.14 2.14h45.06c1.18.0 2.14-.96 2.14-2.14v-11.27c0-.74.21-1.44.63-2.03l38.41-54.86c.25-.36.39-.79.39-1.23V96.68c0-4.29-3.49-7.77-7.77-7.77z"/><path class="cls-2" d="M121.84 239.63c-1.18.0-2.14-.96-2.14-2.14v-39.43c0-.81-.28-1.61-.8-2.23l-53.26-64.41c-2.85-2.71-6.72-4.26-10.79-4.26-1.87.0-3.72.33-5.48.98-.68.25-1.39.14-1.96-.25-.58-.4-.92-1.06-.92-1.76V96.67c0-8.14-6.62-14.76-14.75-14.76s-14.76 6.62-14.76 14.76v73.22c0 .71.22 1.4.63 1.98l38.41 54.92c.26.38.39.8.39 1.23v9.46c0 1.18-.96 2.14-2.14 2.14-8.14.0-14.76 6.62-14.76 14.76v22.53c0 1.93 1.57 3.49 3.49 3.49h90.12c1.93.0 3.49-1.57 3.49-3.49v-22.53c0-8.14-6.62-14.76-14.76-14.76zM24.33 169.32c-.25-.36-.39-.79-.39-1.23V96.67c0-4.29 3.49-7.77 7.77-7.77s7.77 3.49 7.77 7.77v45.46c0 3.99 1.54 7.78 4.36 10.68l24.7 30.28c1.17 1.3 3.52 1.46 4.89.22 1.34-1.2 1.56-3.19.52-4.62l-25.13-30.35c-1.5-1.49-2.38-3.58-2.38-5.81.0-2.22.88-4.35 2.5-5.98 1.69-1.47 3.78-2.26 5.94-2.26 1.94.0 3.76.63 5.43 1.87l.2.19 51.71 62.52c.32.39.49.87.49 1.37v37.23c0 1.18-.96 2.14-2.14 2.14H65.51c-1.18.0-2.14-.96-2.14-2.14v-11.26c0-.71-.22-1.4-.63-1.98l-38.41-54.92zM129.61 271.28c0 1.18-.96 2.14-2.14 2.14H48.62c-1.18.0-2.14-.96-2.14-2.14v-16.9c0-4.29 3.49-7.77 7.77-7.77h67.59c4.29.0 7.77 3.49 7.77 7.77v16.9z"/><path class="cls-2" d="M268.28 81.92c-8.14.0-14.76 6.62-14.76 14.76v29.4c0 .7-.34 1.36-.91 1.76-.58.4-1.33.49-1.98.25-1.75-.65-3.58-.99-5.44-.99-4.2.0-8.26 1.71-11.14 4.69l-52.94 64.2c-.49.59-.78 1.36-.81 2.1v39.39c0 1.18-.96 2.14-2.14 2.14-8.14.0-14.76 6.62-14.76 14.76v22.53c0 1.93 1.57 3.49 3.49 3.49h90.12c1.93.0 3.49-1.57 3.49-3.49v-22.53c0-8.14-6.62-14.76-14.76-14.76-1.18.0-2.14-.96-2.14-2.14v-9.46c0-.44.13-.86.39-1.23l38.41-54.86c.41-.59.63-1.3.63-2.03v-73.23c0-8.14-6.62-14.76-14.76-14.76zm-22.53 164.7c4.29.0 7.77 3.49 7.77 7.77v16.9c0 1.18-.96 2.14-2.14 2.14h-78.86c-1.18.0-2.14-.96-2.14-2.14v-16.9c0-4.29 3.49-7.77 7.77-7.77h67.59zm30.3-78.52c0 .44-.13.87-.39 1.23l-38.41 54.86c-.41.59-.63 1.3-.63 2.03v11.27c0 1.18-.96 2.14-2.14 2.14h-45.06c-1.18.0-2.14-.96-2.14-2.14v-37.28c0-.5.18-.99.5-1.37l51.44-62.38c1.68-1.62 3.76-2.45 5.96-2.45s4.29.84 5.89 2.37c1.6 1.59 2.47 3.68 2.48 5.9.0 2.22-.85 4.31-2.41 5.88l-.33.37-24.78 30.4c-.51.7-.74 1.63-.6 2.55.14.92.63 1.74 1.38 2.28 1.39 1.02 3.51.8 4.63-.45l24.69-30.27c2.85-2.95 4.38-6.74 4.36-10.74V96.67c0-4.29 3.49-7.77 7.77-7.77s7.77 3.49 7.77 7.77v71.42z"/><path class="cls-2" d="M150.42 60.87c2.38.0 4.32-1.94 4.32-4.32V23.91c0-2.38-1.94-4.32-4.32-4.32s-4.32 1.94-4.32 4.32v32.65c0 2.38 1.94 4.32 4.32 4.32z"/><path class="cls-2" d="M83.73 63.93 112 80.25c2.01 1.16 4.75.4 5.89-1.58.58-1 .73-2.16.43-3.27s-1.01-2.04-2.01-2.62L88.04 56.46c-.67-.38-1.4-.58-2.15-.58-.38.0-.76.05-1.13.15-1.11.3-2.04 1.01-2.61 2.01-1.19 2.06-.48 4.71 1.58 5.9z"/><path class="cls-2" d="M188 81.72l28.27-16.32c1-.58 1.71-1.51 2.01-2.62.3-1.11.15-2.27-.43-3.27-.57-1-1.5-1.71-2.61-2.01-.37-.1-.75-.15-1.13-.15-.75.0-1.49.2-2.15.58l-28.27 16.32c-1 .58-1.71 1.51-2.01 2.62-.3 1.11-.15 2.27.43 3.27 1.14 1.98 3.87 2.74 5.89 1.58z"/><path class="cls-2" d="M175.84 158.19c2.67-1.94 3.74-5.22 2.72-8.36l-6.35-19.55 16.63-12.08c2.67-1.94 3.73-5.22 2.71-8.36-1.02-3.14-3.81-5.16-7.11-5.16h-20.56l-6.35-19.55c-1.02-3.14-3.81-5.17-7.11-5.17s-6.09 2.03-7.11 5.16l-6.35 19.55H116.4c-3.3.0-6.09 2.03-7.11 5.16-1.02 3.14.05 6.42 2.72 8.36l16.63 12.08-6.36 19.55c-1.02 3.14.05 6.42 2.72 8.36 2.67 1.94 6.12 1.94 8.78.0l16.63-12.08 16.63 12.08c2.63 1.91 6.17 1.9 8.79.0zm-47.47-4.63 8.43-25.92-22.06-16.03h27.27l8.42-25.93 8.42 25.93h27.27l-22.06 16.03 8.43 25.93-22.06-16.03-22.06 16.02z"/></g></g></g></svg>