<svg xmlns="http://www.w3.org/2000/svg" viewBox="0 0 300 300"><defs><style>.cls-1 { fill: #dd7c3a; }</style></defs><g><g id="Capa_1"><g><path class="cls-1" d="M161.77 277.82c-40.89.0-79.63-19.81-103.62-52.98-1.48-2.05-1.02-4.9 1.03-6.39 2.05-1.48 4.91-1.02 6.39 1.03 22.28 30.8 58.25 49.19 96.21 49.19 65.43.0 118.67-53.23 118.67-118.67S227.2 31.33 161.77 31.33c-38.65.0-74.99 18.92-97.22 50.6-1.44 2.07-4.3 2.57-6.37 1.12-2.07-1.45-2.57-4.31-1.12-6.37 23.94-34.12 63.08-54.5 104.71-54.5 70.48.0 127.82 57.34 127.82 127.82s-57.34 127.82-127.82 127.82z"/><path class="cls-1" d="M90.23 164.66c-1.83-1.7-4.71-1.61-6.43.23l-26.01 27.93V95.58c0-2.51-2.04-4.55-4.55-4.55s-4.55 2.04-4.55 4.55v98.66l-30.49-31.3c-1.75-1.8-4.63-1.84-6.43-.08-1.8 1.75-1.84 4.63-.08 6.43l41.12 42.21 37.64-40.42c1.71-1.84 1.61-4.71-.23-6.43z"/><path class="cls-1" d="M192.51 161.73c-1.88-3.42-4.3-6.24-7.27-8.47s-6.3-4.04-10.01-5.43c-3.71-1.39-7.39-2.68-11.04-3.86-2.97-.99-5.81-1.98-8.52-2.97-2.72-.99-5.14-2.25-7.27-3.79-2.13-1.53-3.83-3.39-5.12-5.57-1.28-2.18-1.92-4.95-1.92-8.33s.67-6.29 2.01-8.77c1.34-2.47 3.1-4.53 5.28-6.17s4.61-2.85 7.28-3.64 5.3-1.19 7.88-1.19c5.05.0 9.37.97 12.93 2.9 3.57 1.93 5.23 3.76 5.23 3.76 1.95 2.14 5.39 2.41 7.64.59l.27-.22c2.26-1.82 2.43-5 .4-7.06.0.0-2.69-2.72-7.74-5.25-4.34-2.17-9.49-3.35-15.36-3.66V75.45c0-2.26-1.83-4.09-4.09-4.09S159 73.19 159 75.45v19.38c-2.15.27-4.3.67-6.48 1.27-3.96 1.09-7.58 2.82-10.85 5.2-3.27 2.38-5.92 5.4-7.95 9.07-2.03 3.67-3.05 8.03-3.05 13.08.0 4.76.82 8.77 2.45 12.04s3.79 6.02 6.47 8.25 5.7 4.04 9.07 5.43c3.37 1.39 6.79 2.63 10.26 3.72 3.37 1.09 6.59 2.18 9.66 3.27s5.8 2.45 8.18 4.09c2.38 1.63 4.29 3.67 5.72 6.09 1.44 2.43 2.16 5.48 2.16 9.14.0 3.37-.72 6.32-2.16 8.85s-3.27 4.66-5.5 6.39c-2.23 1.74-4.73 3.03-7.51 3.87s-5.5 1.26-8.18 1.26c-5.55.0-10.38-1.26-14.49-3.79s-6.32-5.31-6.32-5.31c-1.8-2.27-5.18-2.72-7.5-.99l-.75.56c-2.33 1.73-2.71 4.96-.85 7.18.0.0.68.82 3.16 2.8 2.48 1.98 5.15 3.62 8.03 4.9 2.87 1.29 5.9 2.25 9.07 2.9 2.46.5 4.91.74 7.37.86v18.85c0 2.26 1.83 4.1 4.09 4.1s4.09-1.83 4.09-4.1v-19.17c2.13-.3 4.25-.74 6.37-1.35 4.11-1.19 7.77-3.02 10.97-5.5s5.8-5.62 7.8-9.44c2-3.81 3.01-8.35 3.01-13.6s-.94-9.59-2.82-13.01z"/></g></g></g></svg>