<svg xmlns="http://www.w3.org/2000/svg" viewBox="0 0 300 300"><defs><style>.cls-1 { fill: #3a549b; }</style></defs><g><g id="Capa_1"><path class="cls-1" d="M95.46 284.57c-2.31.0-4.19-1.88-4.19-4.19v-4.51c0-9.77 7.95-17.71 17.71-17.71.18.0.32-.15.32-.32.0-9.77 7.95-17.71 17.71-17.71h9.02c.18.0.32-.15.32-.32V54.9c0-.18-.15-.32-.32-.32h-18.97c-5.08.0-10.19.51-15.18 1.5l-13.35 2.67c-5.02.98-10.16 1.52-15.28 1.6-.11.0-.21.06-.27.15s-.07.21-.02.31l39.84 91.64c.24.54.36 1.1.36 1.67-.02 17.21-14.04 31.23-31.24 31.25H45.84c-17.21-.02-31.22-14.04-31.24-31.24.0-.58.12-1.14.35-1.68L55.44 59.28c.04-.09.04-.19.0-.28-.05-.09-.13-.15-.23-.17-5.16-1.01-10.25-2.5-15.14-4.43l3.11-7.77c5.03 1.99 10.27 3.45 15.61 4.34l1.25-2.25c.42-.97 1.2-1.74 2.17-2.17.53-.23 1.09-.35 1.67-.35 1.67.0 3.18.99 3.84 2.52l1.35 3.08c1.09.22 1.9.23 2.7.23 5.06.0 10.15-.5 15.11-1.49l13.35-2.67c5.54-1.11 11.21-1.67 16.84-1.67h18.97c.18.0.32-.15.32-.32v-1.67c-5.97-6.89-5.97-16.97-.08-23.65 3.36-3.81 8.21-6 13.29-6 4.31.0 8.47 1.57 11.71 4.43 3.55 3.13 5.67 7.45 5.96 12.18.3 4.72-1.26 9.28-4.4 12.82l-.08 1.88c0 .18.15.32.32.32h18.97c5.63.0 11.29.56 16.82 1.66l13.35 2.67c4.96.99 10.04 1.49 15.09 1.49.81.0 1.62-.01 2.43-.04l1.64-3.27c.42-.97 1.2-1.74 2.17-2.17.53-.23 1.09-.35 1.67-.35 1.67.0 3.18.99 3.84 2.52l.9 2.06c5.68-.71 10.93-2.16 15.96-4.15l3.11 7.77c-4.89 1.93-9.99 3.42-15.14 4.43-.1.02-.18.08-.23.17-.04.09-.05.19.0.28l40.51 93.17c.23.54.35 1.1.35 1.67-.02 17.21-14.04 31.23-31.24 31.25H217.2c-17.21-.02-31.22-14.04-31.24-31.24.0-.58.12-1.14.35-1.68l39.84-91.64c.04-.1.04-.22-.02-.31s-.16-.15-.27-.15c-5.1-.07-10.23-.61-15.25-1.6l-13.35-2.67c-5-1-10.11-1.5-15.2-1.5h-18.97c-.18.0-.32.15-.32.32v184.89c0 .18.15.32.32.32h9.02c9.77.0 17.71 7.95 17.71 17.71.0.18.15.32.32.32 9.77.0 17.71 7.95 17.71 17.71v4.51c0 2.31-1.88 4.19-4.19 4.19H95.43zm13.52-18.04c-5.15.0-9.34 4.19-9.34 9.34.0.18.15.32.32.32h99.21c.18.0.32-.15.32-.32.0-5.15-4.19-9.34-9.34-9.34h-81.17zm18.04-18.04c-5.15.0-9.34 4.19-9.34 9.34.0.18.15.32.32.32h63.13c.18.0.32-.15.32-.32.0-5.15-4.19-9.34-9.34-9.34h-45.1zM149.57 23.01c-5.15.0-9.34 4.19-9.34 9.34.0 2.64 1.15 5.16 3.13 6.91.88.79 1.38 1.92 1.38 3.1v197.42c0 .18.15.32.32.32h9.02c.18.0.32-.15.32-.32V42.38c0-1.18.51-2.32 1.39-3.11 1.98-1.75 3.12-4.27 3.12-6.91.0-5.15-4.19-9.34-9.34-9.34zM195.12 158.3c-.1.0-.19.04-.25.12-.06.07-.09.17-.07.27 2.18 10.59 11.6 18.28 22.41 18.3h36.08c10.81-.01 20.24-7.71 22.42-18.3.02-.1.0-.2-.07-.27-.06-.08-.15-.12-.25-.12h-80.27zm-171.37.0c-.1.0-.19.04-.25.12-.06.07-.09.17-.07.27 2.18 10.59 11.6 18.28 22.41 18.3h36.08c10.81-.01 20.24-7.71 22.42-18.3.02-.1.0-.2-.07-.27-.06-.08-.15-.12-.25-.12H23.75zm211.5-96.92c-.13.0-.25.07-.3.19l-38.22 87.9c-.04.1-.04.22.03.31.06.09.16.15.27.15h76.44c.11.0.21-.06.27-.15s.07-.21.03-.31l-38.22-87.9c-.05-.12-.17-.19-.3-.19zm-171.36.0c-.13.0-.25.07-.3.19l-38.22 87.9c-.04.1-.04.22.03.31.06.09.16.15.27.15h76.44c.11.0.21-.06.27-.15s.07-.21.03-.31l-38.22-87.9c-.05-.12-.17-.19-.3-.19z"/></g></g></svg>