<svg xmlns="http://www.w3.org/2000/svg" width="79" height="87" viewBox="0 0 79 87" fill="none"><g clip-path="url(#clip0_30_145)"><path d="M77.2511 83.5074H3.48113V1.74632C3.48113.781686 2.69829.0 1.73224.0.766182.0.0.781686.0 1.74632V87H77.2511C78.2172 87 79 86.2183 79 85.2537 79 84.289 78.2172 83.5074 77.2511 83.5074z" fill="#008aab"/><path d="M35.3444 41.5957l5.5132 5.1225L59.9622 28.0575l-14.6408.3659L45.2381 24.9308 66.1749 24.3986 65.1755 45.2879l-3.4811-.1663L62.394 30.519 40.9076 51.4915l-5.1968-4.8232L10.8599 71.2665C10.2603 72.0149 9.16098 72.1479 8.41146 71.5492 7.66193 70.9505 7.52868 69.8528 8.1283 69.1044L35.3277 41.5458 35.3444 41.5957z" fill="#008aab"/></g><defs><clipPath id="clip0_30_145"><rect width="79" height="87" fill="#fff"/></clipPath></defs></svg>