<svg xmlns="http://www.w3.org/2000/svg" width="92" height="87" viewBox="0 0 92 87" fill="none"><path d="M90.5233 1.54376C89.5641.541111 88.3005.0 86.9456.0H5.05444C3.69949.0 2.43588.557027 1.47675 1.54376.517624 2.54641.0 3.86736.0 5.28379V62.1005C0 63.5169.532848 64.8379 1.47675 65.8405 2.43588 66.8432 3.69949 67.3843 5.05444 67.3843H40.5573C40.7705 67.3843 40.9379 67.5594 40.9379 67.7822V75.3577C40.9379 75.5805 40.7705 75.7556 40.5573 75.7556h-5.435C32.8082 75.7556 30.6311 76.6946 28.9869 78.4134 27.3427 80.1322 26.4445 82.4081 26.4445 84.8272 26.4445 85.6548 27.0839 86.3232 27.8756 86.3232H64.1092C64.9009 86.3232 65.5403 85.6548 65.5403 84.8272c0-4.9974-3.8974-9.0716-8.67780000000001-9.0716H51.4274C51.2143 75.7556 51.0468 75.5805 51.0468 75.3577V67.7822C51.0468 67.5594 51.2143 67.3843 51.4274 67.3843H86.9303C88.2853 67.3843 89.5489 66.8273 90.508 65.8405 91.4672 64.8379 91.9848 63.5169 91.9848 62.1005V5.28379C91.9848 3.86736 91.4519 2.54641 90.508 1.54376H90.5233zM56.8625 78.7476C59.3136 78.7476 61.5211 80.371 62.3432 82.806 62.3889 82.9333 62.3737 83.0606 62.2975 83.172 62.2214 83.2834 62.1148 83.3471 61.9931 83.3471H30.007C29.8852 83.3471 29.7634 83.2834 29.7025 83.172S29.6111 82.9333 29.6568 82.806C29.9461 81.9465 30.4028 81.1826 31.027 80.5301c1.0961-1.1459 2.5576-1.7825 4.1105-1.7825H56.8777 56.8625zM43.8001 75.3577V67.7822C43.8001 67.5594 43.9676 67.3843 44.1807 67.3843h3.6234C48.0172 67.3843 48.1847 67.5594 48.1847 67.7822V75.3577C48.1847 75.5805 48.0172 75.7556 47.8041 75.7556H44.1807C43.9676 75.7556 43.8001 75.5805 43.8001 75.3577zM89.1378 62.1005C89.1378 62.7053 88.9095 63.2941 88.4984 63.7238 88.0874 64.1535 87.5393 64.3923 86.9456 64.3923H5.05444C4.47592 64.3923 3.92785 64.1535 3.50157 63.7238 3.09052 63.2941 2.86215 62.7212 2.86215 62.1005V56.4188C2.86215 56.196 3.02962 56.021 3.24276 56.021H88.7572C88.9704 56.021 89.1378 56.196 89.1378 56.4188v5.6817zm0-9.4695C89.1378 52.8539 88.9704 53.0289 88.7572 53.0289H3.24276C3.02962 53.0289 2.86215 52.8539 2.86215 52.631V5.28379c0-.604769999999999.22837-1.17771.63942-1.62333.41106-.42971.95913-.66843 1.55287-.66843H86.9456c.578500000000005.0 1.1418.23872 1.5528.66843C88.9095 4.09017 89.1378 4.66311 89.1378 5.28379V52.631z" fill="#00bad2"/><path d="M67.9457 11.809H24.8916C24.0542 11.809 23.3691 12.5251 23.3691 13.4005 23.3691 14.2758 24.0542 14.992 24.8916 14.992H67.9457C68.783 14.992 69.4681 14.2758 69.4681 13.4005 69.4681 12.5251 68.783 11.809 67.9457 11.809z" fill="#00bad2"/><path d="M24.9067 25.0661H58.3391C59.1764 25.0661 59.8615 24.3499 59.8615 23.4746 59.8615 22.5992 59.1764 21.8831 58.3391 21.8831H24.9067C24.0694 21.8831 23.3843 22.5992 23.3843 23.4746 23.3843 24.3499 24.0694 25.0661 24.9067 25.0661z" fill="#00bad2"/><path d="M67.9457 31.9255H24.8916C24.0542 31.9255 23.3691 32.6417 23.3691 33.517 23.3691 34.3924 24.0542 35.1085 24.8916 35.1085H67.9457C68.783 35.1085 69.4681 34.3924 69.4681 33.517 69.4681 32.6417 68.783 31.9255 67.9457 31.9255z" fill="#00bad2"/><path d="M58.324 41.984H24.8916C24.0542 41.984 23.3691 42.7002 23.3691 43.5755 23.3691 44.4508 24.0542 45.167 24.8916 45.167H58.324C59.1613 45.167 59.8464 44.4508 59.8464 43.5755 59.8464 42.7002 59.1613 41.984 58.324 41.984z" fill="#00bad2"/></svg>