<svg xmlns="http://www.w3.org/2000/svg" width="66" height="84" viewBox="0 0 66 84" fill="none"><g clip-path="url(#clip0_30_81)"><path d="M1.53168 84C.689255 84 0 83.3217.0 82.4927V6.27023c0-.829.689255-1.50727 1.53168-1.50727H14.0608C14.4284 4.76296 14.7654 4.53687 14.8879 4.1902 15.8222 1.68814 18.3189.0 21.0912.0H44.9088c2.803.0 5.2996 1.68814 6.2033 4.1902C51.2346 4.53687 51.5716 4.76296 51.9392 4.76296H64.453c.842399999999998.0 1.5317.67827 1.5317 1.50727V82.4777C65.9847 83.3067 65.2954 83.9849 64.453 83.9849H1.53168V84zM3.95173 7.79257c-.49014.0-.88837.391889999999999-.88837.87422V80.1113C3.06336 80.5936 3.46159 80.9855 3.95173 80.9855H62.033C62.5231 80.9855 62.9213 80.5936 62.9213 80.1113V8.65171C62.9213 8.16939 62.5231 7.7775 62.033 7.7775H51.9392C51.5716 7.7775 51.2346 8.00359 51.1121 8.35026 50.867 9.0436 50.4994 9.67666 50.0399 10.2343c-1.2253 1.4621-3.0174 2.3062-4.932 2.3062H20.9074c-1.7921.0-3.5075-.7537-4.7176-2.0499C15.6231 9.8726 15.1942 9.16418 14.9032 8.36533 14.7807 8.01866 14.4437 7.79257 14.0761 7.79257H3.95173zM21.1065 3.02961c-1.8074.0-3.339 1.28117-3.4922 2.9241C17.5224 6.88821 17.8287 7.7775 18.4567 8.47084 19.1 9.16418 19.9578 9.541 20.9074 9.541H45.1079C46.1035 9.541 47.0378 9.10389 47.6658 8.35026 48.0334 7.91315 48.6155 6.96357 48.3398 5.60703 48.0487 4.14498 46.5783 3.04468 44.9241 3.04468H21.1065V3.02961z" fill="#3b549a"/><path d="M16.052 33.9888C15.6384 33.9888 15.2555 33.8381 14.9645 33.5517l-4.8401-4.7629C9.83334 28.5024 9.68018 28.1256 9.68018 27.7186S9.83334 26.9348 10.1244 26.6484C10.4154 26.3621 10.7983 26.2113 11.2119 26.2113 11.6254 26.2113 12.0083 26.3621 12.2993 26.6484l3.1247 3.0749C15.5925 29.8891 15.8069 29.9795 16.052 29.9795 16.297 29.9795 16.5115 29.8891 16.6799 29.7233l7.9648-7.8378C24.9357 21.5991 25.3186 21.4484 25.7322 21.4484 26.1457 21.4484 26.5286 21.5991 26.8197 21.8855 27.1107 22.1719 27.2638 22.5487 27.2638 22.9556 27.2638 23.3626 27.1107 23.7394 26.8197 24.0258l-9.6803 9.5259C16.8484 33.8381 16.4655 33.9888 16.052 33.9888z" fill="#3b549a"/><path d="M16.052 53.0407C15.6384 53.0407 15.2555 52.89 14.9645 52.6036l-4.8401-4.763C9.83334 47.5543 9.68018 47.1774 9.68018 46.7705 9.68018 46.3635 9.83334 45.9867 10.1244 45.7003 10.4154 45.4139 10.7983 45.2632 11.2119 45.2632 11.6254 45.2632 12.0083 45.4139 12.2993 45.7003l3.1247 3.0748C15.5925 48.9409 15.8222 49.0314 16.052 49.0314 16.2817 49.0314 16.4961 48.9409 16.6799 48.7751L24.6447 40.9374C24.9357 40.651 25.3186 40.5002 25.7322 40.5002 26.1457 40.5002 26.5286 40.651 26.8197 40.9374 27.1107 41.2237 27.2638 41.6005 27.2638 42.0075 27.2638 42.4145 27.1107 42.7913 26.8197 43.0777l-9.6803 9.5259C16.8484 52.89 16.4655 53.0407 16.052 53.0407z" fill="#3b549a"/><path d="M16.052 72.0926C15.6384 72.0926 15.2555 71.9419 14.9645 71.6555L10.1244 66.8925C9.83334 66.6061 9.68018 66.2293 9.68018 65.8224 9.68018 65.4154 9.83334 65.0386 10.1244 64.7522 10.4154 64.4658 10.7983 64.3151 11.2119 64.3151 11.6254 64.3151 12.0083 64.4658 12.2993 64.7522L15.424 67.827C15.5925 67.9928 15.8069 68.0833 16.052 68.0833 16.2817 68.0833 16.5115 67.9928 16.6799 67.827l7.9648-7.8378C24.9357 59.7029 25.3186 59.5521 25.7322 59.5521 26.1457 59.5521 26.5286 59.7029 26.8197 59.9892 27.417 60.5771 27.417 61.5417 26.8197 62.1296l-9.6803 9.5259C16.8484 71.9419 16.4655 72.0926 16.052 72.0926z" fill="#3b549a"/><path d="M35.4125 24.4629c-.842400000000005.0-1.5316-.6783-1.5316-1.5073s.6892-1.5072 1.5316-1.5072H54.7729c.842500000000001.0 1.5317.6782 1.5317 1.5072s-.6892 1.5073-1.5317 1.5073H35.4125z" fill="#3b549a"/><path d="M35.4125 33.9889c-.842400000000005.0-1.5316-.6783-1.5316-1.5073s.6892-1.5072 1.5316-1.5072h9.6802c.842500000000001.0 1.5317.6782 1.5317 1.5072s-.6892 1.5073-1.5317 1.5073H35.4125z" fill="#3b549a"/><path d="M35.4125 43.5148c-.842400000000005.0-1.5316-.6783-1.5316-1.5073s.6892-1.5073 1.5316-1.5073H54.7729c.842500000000001.0 1.5317.6783 1.5317 1.5073s-.6892 1.5073-1.5317 1.5073H35.4125z" fill="#3b549a"/><path d="M35.4125 53.0408c-.842400000000005.0-1.5316-.6783-1.5316-1.5073C33.8809 50.7045 34.5701 50.0262 35.4125 50.0262h9.6802C45.9352 50.0262 46.6244 50.7045 46.6244 51.5335c0 .829000000000001-.6892 1.5073-1.5317 1.5073H35.4125z" fill="#3b549a"/><path d="M35.4125 62.5667c-.842400000000005.0-1.5316-.6783-1.5316-1.5073C33.8809 60.2304 34.5701 59.5521 35.4125 59.5521H54.7729C55.6154 59.5521 56.3046 60.2304 56.3046 61.0594c0 .829000000000001-.6892 1.5073-1.5317 1.5073H35.4125z" fill="#3b549a"/><path d="M35.4125 72.0925C34.5701 72.0925 33.8809 71.4143 33.8809 70.5853c0-.829000000000008.6892-1.5073 1.5316-1.5073h9.6802C45.9352 69.078 46.6244 69.7563 46.6244 70.5853c0 .828999999999994-.6892 1.5072-1.5317 1.5072H35.4125z" fill="#3b549a"/></g><defs><clipPath id="clip0_30_81"><rect width="66" height="84" fill="#fff"/></clipPath></defs></svg>