<svg xmlns="http://www.w3.org/2000/svg" width="98" height="98" viewBox="0 0 98 98" fill="none"><path d="M69.7196 94.0653H57.1301l-.7502-5.0162C54.539 89.3108 52.6819 89.473 50.8306 89.5328V89.5597L49.1911 89.5627C48.8309 89.5627 48.4723 89.5573 48.1131 89.5504 47.9901 89.5489 47.8563 89.5431 47.7226 89.5377L47.4962 89.5288C47.2208 89.5186 46.9827 89.5102 46.7455 89.499 46.2099 89.473 45.6729 89.4421 45.1412 89.399L44.9256 89.3838C43.61 89.2799 42.3291 89.1329 41.1046 88.9482L37.5242 94.0653H24.8851V83.6513C13.5323 77.7635 4.75692 68.0355.1127 56.1598L0 55.8703V43.3904H1.63954c5.22144.0 10.03276-2.0609 13.20206-5.6541 2.4167-2.7371 4.8098-4.9353 7.2956-6.6948V18.6655h1.6396c5.2194.0 10.1082 1.9595 13.8709 5.539C41.3869 23.3259 45.2647 22.881 49.1911 22.881c22.7531.0 41.2644 14.9568 41.2644 33.3401.0 9.9573-5.4121 19.2776-14.8661 25.6368L69.7196 94.0653zm-9.7647-3.2791h7.7023l5.3694-11.1657L73.4064 79.3702C82.1578 73.6249 87.1764 65.1876 87.1764 56.2206c0-16.5757-17.0398-30.061-37.9858-30.061C45.2187 26.1596 41.3026 26.6457 37.5492 27.6041L36.6226 27.8413 35.9601 27.1509C33.124 24.1922 29.4269 22.4052 25.4158 22.022V32.7795L24.6877 33.2661c-2.5098 1.6792-4.926 3.8509-7.3883 6.64C13.8484 43.8197 8.8053 46.2138 3.27859 46.6112v8.6392C7.77875 66.5498 16.2822 75.75 27.2504 81.1748L28.1632 81.6261v9.1601h7.6529L39.6042 85.3712 40.6308 85.5491C42.0616 85.798 43.5924 85.9886 45.1814 86.1135L45.3985 86.1292C45.8978 86.1689 46.3981 86.1993 46.8984 86.2213 47.1248 86.2326 47.3502 86.2414 47.5726 86.2488L47.8622 86.2601C47.9641 86.2645 48.0665 86.2689 48.1685 86.2703 48.3762 86.2747 48.581 86.2787 48.7849 86.2811L49.1882 86.2796C51.9483 86.2796 54.735 86.0366 57.4716 85.5554L59.1278 85.2634 59.9549 90.7862z" fill="#ee7811"/><path d="M88.8159 57.8601V54.5815c3.25660000000001.0 5.9055-2.6485 5.9055-5.904H98c0 5.0627-4.1199 9.1826-9.1841 9.1826z" fill="#ee7811"/><path d="M24.854 50.4597c-2.9934.0-5.4282-2.4358-5.4282-5.4302h3.2786c0 1.1863.963799999999999 2.1516 2.1496 2.1516S27.0036 46.2158 27.0036 45.0295h3.2786c0 2.9944-2.4348 5.4302-5.4282 5.4302z" fill="#ee7811"/><path d="M50.6085 66.1285H47.8513c-1.5376.0-2.9865-.5993-4.08020000000001-1.6861C42.6789 63.3467 42.0796 61.8963 42.0796 60.3509h3.2786C45.3582 61.0207 45.6174 61.6499 46.0873 62.1222 46.5577 62.5892 47.1854 62.8494 47.8508 62.8494H50.608C51.2715 62.8494 51.8982 62.5892 52.374 62.1163 52.8385 61.6513 53.0977 61.0222 53.0977 60.3504 53.0977 59.683 52.841 59.0592 52.374 58.5957 51.8982 58.1214 51.2725 57.8612 50.608 57.8612H47.8508C46.3083 57.8612 44.8579 57.259 43.7667 56.1663c-1.0859-1.077-1.6871-2.526-1.6871-4.0754.0-1.5425.5993-2.9939 1.6871-4.0846 1.0927-1.0917 2.5431-1.6915 4.0841-1.6915H50.608c1.5391.0 2.9881.599800000000002 4.0793 1.6886 1.0902 1.0927 1.689 2.5436 1.689 4.0875H53.0977C53.0977 51.4221 52.839 50.7929 52.3691 50.322 51.8997 49.8536 51.273 49.5939 50.608 49.5939H47.8508C47.1839 49.5939 46.5572 49.8536 46.0853 50.325 45.6169 50.7929 45.3582 51.4221 45.3582 52.0909 45.3582 52.7593 45.6149 53.3816 46.0819 53.8442 46.5587 54.3224 47.1854 54.5826 47.8508 54.5826H50.608C52.1481 54.5826 53.5975 55.1833 54.6878 56.2731c1.0883 1.0814 1.6885 2.5304 1.6885 4.0773.0 1.545-.599200000000003 2.9968-1.6861 4.0871C53.5917 65.5292 52.1437 66.1285 50.6085 66.1285z" fill="#ee7811"/><path d="M50.867 43.7163H47.5884V47.9543H50.867V43.7163z" fill="#ee7811"/><path d="M50.867 64.4889H47.5884V68.724H50.867V64.4889z" fill="#ee7811"/><path d="M49.2262 19.5995c-4.3179.0-7.8297-3.5143-7.8297-7.8341.0-4.3179 3.5123-7.83022 7.8297-7.83022 4.3203.0 7.8356 3.51281 7.8356 7.83022.0 4.3193-3.5153 7.8341-7.8356 7.8341zm0-12.38622c-2.5098.0-4.5511 2.04183-4.5511 4.55162.0 2.5117 2.0418 4.5555 4.5511 4.5555 2.5122.0 4.557-2.0433 4.557-4.5555.0-2.5093-2.0448-4.55162-4.557-4.55162z" fill="#ee7811"/></svg>