<svg xmlns="http://www.w3.org/2000/svg" width="35" height="35" viewBox="0 0 35 35" fill="none"><path d="M12.8346 11.8384C11.2863 13.3872 8.78269 13.3872 7.23438 11.8384L2.16123 6.76365C0.612925 5.21485 0.612925 2.7104 2.16123 1.1616C3.70953 -0.3872 6.21316 -0.3872 7.76147 1.1616L12.8676 6.26935C14.3829 7.7852 14.3829 10.2896 12.8346 11.8384Z" fill="#EE7811"></path><path d="M11.8413 22.2477C13.3862 23.9114 13.3862 26.6017 11.8413 28.2654L6.74652 33.7521C5.20164 35.4159 2.70354 35.4159 1.15866 33.7521C-0.38622 32.0884 -0.38622 29.3981 1.15866 27.7344L6.25348 22.2477C7.83123 20.5839 10.3293 20.5839 11.8413 22.2477Z" fill="#D75D00"></path><path d="M33.8384 1.15866C35.3872 2.70355 35.3872 5.20166 33.8384 6.74655L28.7636 11.8414C27.2148 13.3863 24.7104 13.3863 23.1616 11.8414C21.6128 10.2965 21.6128 7.79839 23.1616 6.2535L28.2693 1.15866C29.8181 -0.386221 32.3226 -0.386221 33.8384 1.15866Z" fill="#FB9B40"></path></svg>