<svg xmlns="http://www.w3.org/2000/svg" width="86" height="84" viewBox="0 0 86 84" fill="none"><g clip-path="url(#clip0_30_77)"><path d="M82.5983 25.6329C78.1919 15.5591 70.012 7.55612 59.7679 3.29655 54.5067 1.09557 48.8469-.026014 43.1328.161246e-4 37.3627-.0310049 31.6459 1.09032 26.3261 3.29655 16.0434 7.52606 7.82889 15.5355 3.41772 25.6329 1.17318 30.8267.0161133 36.415.0161133 42.0616c0 5.6467 1.1570667 11.235 3.4016067 16.4288 2.18758 4.9848 5.31765 9.5123 9.22268 13.3402 3.93 3.8282 8.5787 6.863 13.6857 8.9345C31.6544 82.9369 37.3683 84.0367 43.1328 84 54.4529 84.0558 65.3338 79.6797 73.3912 71.8306 77.293 68.0001 80.4226 63.4732 82.6139 58.4904c2.2445-5.1938 3.4016-10.7821 3.4016-16.4288.0-5.6466-1.1571-11.2349-3.4016-16.4287H82.5983zM43.1172 80.4262C32.6934 80.4646 22.6741 76.4464 15.2308 69.2426c-3.5825-3.4919-6.47222-7.614-8.52039-12.154-2.09683-4.7184-3.16039-9.8208-3.12103-14.973C3.55292 36.9437 4.61617 31.8218 6.71041 27.0809 10.7838 17.826 18.3362 10.4923 27.7774 6.62389c4.8478-2.04607 10.0675-3.0944 15.3398-3.08087C48.3336 3.53436 53.4963 4.58296 58.2854 6.62389c4.6424 1.96723 8.8753 4.76671 12.4842 8.25671C74.363 18.368 77.2356 22.5116 79.2276 27.0809 81.306 31.8267 82.3686 36.9453 82.3486 42.1156 82.3736 47.2664 81.3106 52.3659 79.2276 57.0886c-2 4.5513-4.872 8.67830000000001-8.458 12.154C67.1704 72.7287 62.9342 75.5096 58.2854 77.4378 53.4855 79.4341 48.3258 80.4507 43.1172 80.4262z" fill="#f05d5e"/><path d="M35.143 54.5931C34.8309 54.208 34.2379 53.4994 33.8322 53.0527l-8.1147-9.3813C25.5331 43.4472 25.4446 43.1607 25.4708 42.873 25.4971 42.5854 25.6359 42.3191 25.8579 42.131L26.9815 41.1759C27.2035 40.9854 27.4915 40.887 27.7853 40.9014 28.079 40.9158 28.3558 41.0417 28.5576 41.2529L35.5643 49.3556C35.759 49.5674 36.0263 49.7004 36.3146 49.7288 36.6029 49.7573 36.8916 49.6792 37.1249 49.5097L57.2711 34.1053C57.506 33.9303 57.801 33.8533 58.0928 33.8907 58.3846 33.9282 58.6499 34.0771 58.8316 34.3056L59.7055 35.4455C59.8699 35.683 59.9386 35.9725 59.8982 36.2574 59.8578 36.5423 59.7112 36.8021 59.487 36.9859L38.1704 53.3608C37.671 53.7459 36.922 54.3312 36.5007 54.6855 36.407 54.7708 36.2967 54.8362 36.1765 54.8779 36.0563 54.9196 35.9288 54.9367 35.8017 54.928 35.6746 54.9193 35.5506 54.8852 35.4374 54.8276 35.3241 54.77 35.2239 54.6902 35.143 54.5931z" fill="#f05d5e"/></g><defs><clipPath id="clip0_30_77"><rect width="86" height="84" fill="#fff"/></clipPath></defs></svg>