<svg xmlns="http://www.w3.org/2000/svg" xmlns:xlink="http://www.w3.org/1999/xlink" viewBox="0 0 600 600"><defs><style>.cls-1 { fill: #fff; } .cls-2 { fill: url(#linear-gradient); }</style><linearGradient id="linear-gradient" x1="334.03" y1="-123.52" x2="327.66" y2="461.09" gradientTransform="translate(-32.02 149.04) rotate(-4.11)" gradientUnits="userSpaceOnUse"><stop offset="0" stop-color="#f28f1f"/><stop offset="1" stop-color="#dd7c3a"/></linearGradient></defs><g><g id="Capa_1"><g><path class="cls-2" d="M505.61 30.16 80.98 71.53C37.79 75.74 7.38 117.14 12.16 162.42l23.58 223.15c3.75 35.46 35.91 62.81 72.48 62.2l112.16-1.99L389.56 570.3l-43.25-127.39 115.73-1.11c42.97-.73 82.84-32.34 88.6-71.96l36.73-252.94c7.56-52.08-29.33-91.83-81.74-86.73zM381.85 373.26c-.74.05-.83-1.1-.08-1.15.74-.05.83 1.1.08 1.15zm33.99 16.81c-1.77-3.02-3.18-6.44-5.32-9.23-2.3-3-5.35-3.57-8.99-3.36-.74.04-.83-1.11-.08-1.15 3.21-.18 6.69.09 8.99 2.62 2.73 3 4.31 6.99 6.35 10.46.38.64-.58 1.3-.95.65zM446.32 399.9c-.74.05-.83-1.1-.08-1.15s.83 1.1.08 1.15zm24.36-27.38c-.74.05-.83-1.1-.08-1.15s.83 1.1.08 1.15z"/><g><path class="cls-1" d="M156.52 205.96l-11.36.82-19.33-56.61 1.18-.08-11.04 58.79-11.27.81-24.43-68.65 10.77-.77 20.57 61.54-2.94.21 12.05-63.88 9.8-.7 21.06 61.5-2.64.19 11.46-63.84 10.38-.75-14.26 71.43z"/><path class="cls-1" d="M231.16 200.6l-9.8.7-2.01-28.02c-.32-4.44-1.48-7.79-3.48-10.04s-4.63-3.26-7.9-3.03c-3.98.29-7.1 2.2-9.34 5.74-2.24 3.54-3.14 8.35-2.71 14.42l1.63 22.63-9.8.7-5.07-70.53 9.8-.7 2.65 36.83-1.37.1c.25-3.82 1.1-7.02 2.56-9.59s3.33-4.52 5.63-5.87c2.3-1.35 4.92-2.13 7.86-2.34 5.55-.4 10.03 1.12 13.42 4.55 3.4 3.43 5.34 8.54 5.83 15.34l2.09 29.09z"/><path class="cls-1" d="M285.14 196.72l-8.91.64-.69-9.6-.46-2.23-1.31-18.22c-.27-3.79-1.63-6.69-4.07-8.72-2.44-2.02-5.66-2.89-9.64-2.61-5.23.38-9.64 2.86-13.25 7.45l-6.12-5.67c5.28-5.96 11.81-9.22 19.58-9.78 4.31-.31 8.11.24 11.39 1.64 3.28 1.41 5.91 3.53 7.89 6.38 1.98 2.85 3.11 6.29 3.4 10.34l2.18 30.37zM259.88 200.11c-3.46.25-6.56-.2-9.3-1.35s-4.95-2.85-6.62-5.09c-1.67-2.24-2.61-4.87-2.83-7.87-.36-5.03 1.3-9.1 4.98-12.22 3.68-3.12 8.82-4.92 15.42-5.39l13.13-.94.5 6.96-12.24.88c-3.92.28-6.92 1.27-8.99 2.96-2.08 1.69-3.02 3.91-2.82 6.65.18 2.48 1.19 4.43 3.03 5.84s4.23 2.01 7.17 1.8c2.81-.2 5.28-1 7.41-2.4 2.13-1.4 3.8-3.23 5.02-5.48s1.82-4.79 1.82-7.61l3.16 1.45c.29 3.98-.33 7.57-1.83 10.77-1.51 3.2-3.72 5.77-6.63 7.71-2.91 1.95-6.36 3.07-10.34 3.35z"/><path class="cls-1" d="M322.49 153.37l-30.66 2.2-.59-8.23 30.66-2.2.59 8.23zm3.5 40.41-11.07.8c-3.85.28-6.82-.53-8.89-2.41s-3.25-4.79-3.53-8.71l-3.62-50.35 9.8-.7 3.53 49.08c.12 1.63.6 2.85 1.44 3.64.85.79 2.05 1.13 3.62 1.02l8.13-.58.59 8.23z"/><path class="cls-1" d="M392.42 190.59c-4.96.36-9.62-.23-13.96-1.75s-8.2-3.83-11.57-6.9-6.08-6.78-8.14-11.13c-2.05-4.35-3.27-9.13-3.64-14.36-.38-5.22.14-10.12 1.55-14.68s3.57-8.61 6.46-12.13c2.9-3.52 6.39-6.35 10.47-8.48 4.08-2.13 8.6-3.37 13.57-3.73 4.96-.36 9.62.23 13.96 1.75 4.34 1.53 8.2 3.83 11.57 6.9s6.08 6.77 8.13 11.08c2.05 4.32 3.26 9.09 3.64 14.31.37 5.23-.14 10.14-1.55 14.73-1.41 4.6-3.56 8.66-6.46 12.18s-6.39 6.35-10.47 8.48c-4.08 2.13-8.6 3.37-13.56 3.73zM391.76 181.48c4.77-.34 8.88-1.83 12.33-4.48 3.45-2.64 6.06-6.11 7.82-10.41 1.76-4.3 2.45-9.09 2.07-14.38-.38-5.35-1.75-10-4.1-13.93s-5.42-6.96-9.22-9.09c-3.79-2.12-8.08-3.01-12.84-2.67-4.7.34-8.78 1.81-12.24 4.42-3.45 2.61-6.06 6.05-7.82 10.31s-2.45 9.07-2.06 14.43c.38 5.29 1.75 9.95 4.1 13.98 2.36 4.03 5.43 7.09 9.23 9.18 3.79 2.09 8.04 2.97 12.74 2.63z"/><path class="cls-1" d="M472.7 162.37l2.1 1.82c.48 3.97.07 7.54-1.25 10.72-1.31 3.18-3.31 5.74-6 7.67-2.68 1.93-5.92 3.04-9.71 3.31-5.35.38-9.77-1.04-13.25-4.27-3.48-3.23-5.46-8.11-5.92-14.64l-2.16-30.07 9.8-.7 2.09 29.09c.3 4.18 1.46 7.3 3.48 9.35 2.02 2.05 4.66 2.96 7.92 2.73 2.42-.17 4.56-.93 6.43-2.28s3.4-3.12 4.59-5.3c1.19-2.19 1.81-4.66 1.88-7.42zm10.51 20.12-9.7.7-.68-9.4-.29-2.74-2.63-36.54 9.8-.7 3.5 48.69z"/><path class="cls-1" d="M522.75 129.92l.66 9.21-2.06.15c-2.94.21-5.57 1.11-7.88 2.68-2.32 1.58-4.07 3.87-5.26 6.88-1.2 3.01-1.63 6.8-1.3 11.37l1.47 20.47-9.8.7-3.5-48.69 9.7-.7 1.13 15.67-1.37.1c.29-4.22 1.29-7.59 3.01-10.11 1.72-2.52 3.79-4.37 6.2-5.57 2.41-1.19 4.82-1.87 7.24-2.05l1.76-.13z"/><path class="cls-1" d="M208.25 276.31l7.35 6.36c-2.64 4.33-6.25 7.83-10.81 10.53-4.57 2.69-9.43 4.22-14.59 4.59-4.9.35-9.49-.24-13.76-1.77-4.28-1.53-8.07-3.84-11.38-6.91-3.31-3.08-5.97-6.77-7.99-11.09s-3.21-9.09-3.59-14.31c-.38-5.29.14-10.22 1.55-14.78 1.41-4.56 3.53-8.61 6.36-12.13s6.27-6.34 10.32-8.47c4.05-2.13 8.52-3.37 13.42-3.72 5.42-.39 10.45.4 15.09 2.36 4.64 1.97 8.64 4.96 12.02 8.98l-6.36 7.35c-2.55-3.43-5.53-5.97-8.97-7.63-3.43-1.66-7.17-2.34-11.22-2.05-4.57.33-8.55 1.81-11.94 4.45s-5.95 6.09-7.67 10.35c-1.73 4.26-2.4 9.1-2.01 14.52.38 5.29 1.73 9.94 4.05 13.94 2.32 4 5.35 7.07 9.08 9.19 3.73 2.13 7.88 3.03 12.45 2.7 4.05-.29 7.67-1.52 10.86-3.69 3.19-2.17 5.77-5.09 7.74-8.78z"/><path class="cls-1" d="M238.28 292.76l-9.8.7-5.07-70.53 9.8-.7 5.07 70.53z"/><path class="cls-1" d="M260.28 224.91c.13 1.76-.37 3.29-1.49 4.59s-2.6 2.01-4.43 2.14c-1.83.13-3.41-.36-4.73-1.48-1.33-1.12-2.05-2.56-2.18-4.32-.13-1.83.36-3.39 1.48-4.68 1.12-1.3 2.6-2.01 4.42-2.14 1.83-.13 3.41.36 4.73 1.48 1.33 1.12 2.06 2.59 2.19 4.42zM263.55 290.94l-9.8.7-3.5-48.69 9.8-.7 3.5 48.69z"/><path class="cls-1" d="M315.42 272.84l6.23 5.76c-2.31 3.45-5.16 6.1-8.54 7.95-3.38 1.85-7.13 2.92-11.24 3.22-5.09.37-9.63-.43-13.61-2.37s-7.19-4.8-9.62-8.56c-2.44-3.76-3.83-8.13-4.19-13.09s.38-9.48 2.23-13.55c1.84-4.07 4.49-7.36 7.95-9.88s7.48-3.93 12.05-4.26c4.44-.32 8.44.49 11.99 2.44 3.55 1.94 6.43 4.77 8.63 8.49s3.48 8.06 3.84 13.02l.04.59-9.7.7-.07-.98c-.38-5.22-1.83-9.29-4.37-12.19s-5.83-4.21-9.88-3.92c-2.74.2-5.11 1.09-7.09 2.68-1.99 1.59-3.47 3.76-4.45 6.52-.98 2.76-1.35 5.91-1.09 9.43.26 3.59 1.12 6.66 2.58 9.22 1.46 2.55 3.44 4.51 5.94 5.87 2.49 1.36 5.4 1.93 8.74 1.69 2.94-.21 5.54-1.05 7.79-2.53 2.26-1.47 4.21-3.55 5.85-6.23zM321.39 265.52l-39.77 2.86-.51-7.05 38.3-2.75 1.72 3.42.25 3.53z"/><path class="cls-1" d="M379.04 282.64l-9.8.7-2.01-28.02c-.33-4.57-1.52-7.95-3.58-10.13s-4.69-3.16-7.89-2.93c-2.29.16-4.39.97-6.32 2.42s-3.43 3.64-4.5 6.58c-1.07 2.93-1.44 6.65-1.12 11.16l1.63 22.63-9.8.7-3.5-48.69 9.7-.7 1.08 14.99-1.37.1c.29-4.22 1.24-7.6 2.86-10.15 1.62-2.54 3.6-4.41 5.95-5.6 2.34-1.18 4.79-1.87 7.34-2.05 5.48-.39 9.94 1.11 13.37 4.5 3.43 3.4 5.39 8.52 5.88 15.38l2.09 29.09z"/><path class="cls-1" d="M416.49 239.29l-30.66 2.2-.59-8.23 30.66-2.2.59 8.23zm3.5 40.41-11.07.8c-3.85.28-6.82-.53-8.89-2.41-2.07-1.89-3.25-4.79-3.53-8.71l-3.62-50.35 9.8-.7 3.53 49.08c.12 1.63.6 2.85 1.44 3.64.85.79 2.05 1.13 3.62 1.02l8.13-.58.59 8.23z"/><path class="cls-1" d="M425.73 271.9l5.03-6.76c2.25 2.14 4.79 3.79 7.59 4.97 2.81 1.18 5.91 1.64 9.31 1.4 3.2-.23 5.75-1.12 7.64-2.67s2.76-3.43 2.6-5.65c-.14-1.89-1.09-3.35-2.87-4.37-1.78-1.02-4.81-1.67-9.1-1.96-6.93-.55-11.93-1.85-15-3.89s-4.74-5.03-5.02-8.94c-.22-3.07.41-5.79 1.88-8.16s3.61-4.3 6.43-5.78c2.81-1.48 6.12-2.36 9.9-2.63 4.18-.3 8.02.2 11.53 1.49 3.51 1.29 6.64 3.28 9.39 5.97l-5.22 6.78c-2-2.22-4.25-3.91-6.77-5.08-2.51-1.16-5.27-1.64-8.27-1.42-2.87.21-5.18 1.01-6.92 2.42-1.74 1.4-2.53 3.12-2.39 5.14.08 1.11.48 2.03 1.18 2.77.71.74 1.87 1.29 3.47 1.67s3.82.7 6.66.95c7.26.59 12.47 1.98 15.61 4.15 3.14 2.17 4.87 5.48 5.19 9.92.22 3.07-.45 5.84-2.01 8.32s-3.85 4.48-6.86 6.01-6.54 2.44-10.58 2.73c-4.64.33-8.82-.15-12.56-1.46s-7.01-3.27-9.83-5.89z"/><path class="cls-1" d="M235.81 374.19l6.46-7.36c2.06 2.21 4.29 4.06 6.7 5.52 2.4 1.47 4.96 2.52 7.66 3.14 2.7.63 5.49.84 8.37.63 5.03-.36 8.95-1.76 11.76-4.19s4.09-5.48 3.82-9.14c-.24-3.33-1.76-5.8-4.57-7.4-2.81-1.6-7.38-2.7-13.73-3.3-8.91-.74-15.46-2.5-19.63-5.29-4.17-2.78-6.45-6.89-6.84-12.31-.3-4.11.52-7.8 2.46-11.06 1.93-3.26 4.76-5.9 8.49-7.94 3.73-2.04 8.04-3.24 12.94-3.59 5.55-.4 10.69.27 15.4 1.99 4.72 1.73 8.96 4.49 12.71 8.29l-6.17 7.34c-3.12-3.25-6.41-5.61-9.86-7.07s-7.27-2.04-11.45-1.74c-4.64.33-8.24 1.61-10.8 3.83-2.56 2.22-3.72 5.09-3.47 8.62.21 2.87 1.62 5.02 4.25 6.44s6.95 2.4 12.96 2.96c9.24.78 16.04 2.67 20.39 5.67 4.35 3 6.74 7.48 7.17 13.42.3 4.18-.56 7.98-2.58 11.41s-4.99 6.19-8.91 8.27c-3.92 2.09-8.52 3.32-13.82 3.7-5.75.41-11.15-.3-16.2-2.14-5.05-1.84-9.56-4.74-13.53-8.73z"/><path class="cls-1" d="M344.67 377.79l-8.91.64-.69-9.6-.46-2.23-1.31-18.22c-.27-3.79-1.63-6.69-4.07-8.72-2.44-2.02-5.66-2.89-9.64-2.61-5.23.38-9.64 2.86-13.25 7.45l-6.12-5.66c5.28-5.96 11.81-9.22 19.58-9.78 4.31-.31 8.11.24 11.39 1.64 3.28 1.41 5.91 3.53 7.89 6.38 1.98 2.84 3.11 6.29 3.4 10.34l2.18 30.37zM319.41 381.18c-3.46.25-6.56-.2-9.3-1.35-2.74-1.15-4.95-2.84-6.62-5.09-1.67-2.24-2.61-4.87-2.83-7.87-.36-5.03 1.3-9.1 4.98-12.22s8.82-4.92 15.42-5.39l13.13-.94.5 6.96-12.24.88c-3.92.28-6.92 1.27-8.99 2.96-2.08 1.69-3.02 3.91-2.82 6.65.18 2.48 1.19 4.43 3.03 5.84 1.84 1.41 4.23 2.01 7.17 1.8 2.81-.2 5.28-1 7.41-2.4 2.13-1.4 3.8-3.23 5.02-5.48 1.22-2.25 1.82-4.79 1.81-7.61l3.16 1.45c.29 3.98-.33 7.57-1.83 10.77-1.51 3.19-3.72 5.77-6.63 7.71-2.91 1.95-6.36 3.07-10.34 3.35z"/><path class="cls-1" d="M387.61 325.76l9.89-.71-18.51 57.55c-1.23 3.89-2.93 6.94-5.1 9.13s-5.48 3.45-9.92 3.76l-6.07.44-.59-8.23 5.78-.42c2.22-.16 3.88-.77 4.99-1.83 1.11-1.07 1.91-2.6 2.43-4.61l1.43-4.83-23.2-47.47 10.28-.74 18.96 41.86-3.33.24 12.98-44.16z"/></g></g></g></g></svg>